# xmcd
#
# Track frame offsets:
#       150
#       13857
#       26232
#       39402
#       52857
#       64520
#       77027
#       85977
#       96920
#       107395
#       118847
#       131447
#       144007
#       156840
#
# Disc length: 2192 seconds
#
# Revision: 2
# Processed by: cddbd v1.4PL0 Copyright (c) Steve Scherf et al.
# Submitted via: CD-DA_X-Tractor v0.21
#
DISCID=aa088e0e
DTITLE=Eddie Taylor - Bad Boy
DYEAR=1900
DGENRE=
TTITLE0=Bad Boy
TTITLE1=E.T. Blues
TTITLE2=Ride 'Em On Down
TTITLE3=Big Town Playboy
TTITLE4=You'll Always Have A Home
TTITLE5=Don't Knock At My Door
TTITLE6=I'm Gonna Love You
TTITLE7=Lookin' For My Trouble
TTITLE8=Find My Baby
TTITLE9=Stroll Out West
TTITLE10=I'm Sitting Here
TTITLE11=Do You Want Me To Cry
TTITLE12=Train Fare
TTITLE13=Somethin' For Nothin'
EXTD=
EXTT0=
EXTT1=
EXTT2=
EXTT3=
EXTT4=
EXTT5=
EXTT6=
EXTT7=
EXTT8=
EXTT9=
EXTT10=
EXTT11=
EXTT12=
EXTT13=
PLAYORDER=
